<svg width="200" height="54" viewBox="0 0 200 54" fill="none" xmlns="http://www.w3.org/2000/svg">
<path fill-rule="evenodd" clip-rule="evenodd" d="M0.014002 27.8795C0.461988 41.9772 12.7634 53.9324 26.8683 53.9997C28.0613 54.005 29.2367 53.9333 30.3896 53.7891C36.3825 53.0383 40.5419 47.385 39.4511 41.4442C39.4401 41.384 39.4291 41.3234 39.4172 41.2627C38.0636 35.2345 32.1878 30.6429 25.83 30.4055C26.396 31.1511 27.0264 31.8445 27.7141 32.4778C27.7213 35.0387 28.3407 37.4549 29.433 39.5902C29.7372 40.1853 29.0934 40.8143 28.5108 40.4866C24.4545 38.2042 21.204 34.6619 19.2836 30.3922C18.9254 29.5936 18.614 28.7707 18.3518 27.9254C17.9979 28.6437 17.7987 29.4513 17.7983 30.3057C17.7983 30.3349 17.8002 30.363 17.8007 30.3922L6.31684 30.3927C5.37407 30.2809 4.69111 29.308 5.05694 28.2836C5.21025 27.8538 5.54457 27.5118 5.94432 27.2916C7.1321 26.6387 8.42018 26.0141 9.78515 25.4123C10.3616 26.0527 11.0919 26.5509 11.9195 26.846C11.547 26.2051 11.2929 25.4911 11.1664 24.789C11.0068 23.8553 11.0627 22.8896 11.3388 21.9779C11.7213 20.7137 12.5246 19.5536 13.7564 18.7274C16.7662 16.7081 20.5807 15.6206 25.1442 15.6206H25.2235C25.872 15.6206 26.5139 15.6531 27.1501 15.7099C27.4729 15.7391 27.7934 15.7763 28.1129 15.8193L28.1139 15.8183C29.1202 15.954 30.1069 16.1579 31.0673 16.4282C30.7158 15.878 30.2697 15.3942 29.7501 15.0016C29.6131 14.9057 29.475 14.8097 29.3346 14.718C29.3098 14.7022 29.2854 14.6874 29.2601 14.6721C32.1123 11.8424 36.0329 10.0953 40.3633 10.0953C40.5935 10.0953 40.8232 10.101 41.051 10.1115C41.585 10.1364 41.8878 10.7482 41.5749 11.1818C41.2148 11.6814 40.8829 12.2029 40.5825 12.7445C38.728 16.0824 39.1268 20.2705 41.6022 23.1776C44.3068 26.3555 46.0925 30.3449 46.5152 34.7722C46.8858 38.6522 46.8871 43.1024 45.4157 46.3553C45.1114 47.0278 45.2925 46.8702 45.8222 46.3553C50.8986 41.4184 54.0402 34.5033 53.9996 26.8532C53.9232 12.4288 42.3042 0.476053 27.887 0.0142179C12.2763 -0.485825 -0.482221 12.2698 0.014002 27.8795Z" fill="#333333"/>
<path fill-rule="evenodd" clip-rule="evenodd" d="M14 25.8976C14 25.8976 14.2065 25.3479 14.3848 25.0456C14.6076 24.6735 14.8981 24.3882 15.222 24.2114C15.629 23.9893 16.1668 23.9358 16.6311 24.0814C17.5968 24.3845 18.1888 25.0709 19 25.8976C17.0924 26.1524 15.45 26.252 14 25.8976Z" fill="#262626"/>
<path fill-rule="evenodd" clip-rule="evenodd" d="M76.9107 38.688L68.7995 17.1999H74.9417L79.9715 31.454L85.0225 17.1999H91.1435L83.0535 38.688H76.9107Z" fill="#333333"/>
<path fill-rule="evenodd" clip-rule="evenodd" d="M107.18 32.2034C108.208 31.0904 108.721 29.6704 108.721 27.9441C108.721 26.2178 108.208 24.8013 107.18 23.6957C106.153 22.5902 104.911 22.0371 103.456 22.0371C102.001 22.0371 100.76 22.5902 99.7322 23.6957C98.7047 24.8013 98.1912 26.2178 98.1912 27.9441C98.1912 29.6704 98.7047 31.0904 99.7322 32.2034C100.76 33.3158 102.001 33.8729 103.456 33.8729C104.911 33.8729 106.153 33.3158 107.18 32.2034ZM105.8 17.5426C106.862 18.0561 107.616 18.5558 108.057 19.0412L108.721 19.8329V7.99707H114.628V38.6881H109.848L108.721 36.0553C108.664 36.1408 108.575 36.2516 108.454 36.3875C108.332 36.5229 108.076 36.7656 107.683 37.115C107.291 37.4644 106.866 37.7782 106.41 38.0571C105.953 38.3353 105.361 38.5809 104.634 38.7954C103.905 39.0089 103.149 39.1161 102.364 39.1161C99.5825 39.1161 97.1677 38.0353 95.1201 35.8735C93.0725 33.7117 92.049 31.0686 92.049 27.9441C92.049 24.8191 93.0725 22.1759 95.1201 20.0142C97.1677 17.853 99.5825 16.7721 102.364 16.7721C103.592 16.7721 104.737 17.0291 105.8 17.5426Z" fill="#333333"/>
<path fill-rule="evenodd" clip-rule="evenodd" d="M121.826 20.1217C124.123 17.8882 126.848 16.7723 130.002 16.7723C131.114 16.7723 132.174 16.9255 133.18 17.2324C134.186 17.5394 135.01 17.9026 135.652 18.3237C136.294 18.7448 136.865 19.1687 137.364 19.5967C137.863 20.0253 138.227 20.3965 138.456 20.7103L138.776 21.1596L135.053 24.8836C134.939 24.6839 134.749 24.42 134.485 24.0913C134.222 23.7637 133.651 23.3391 132.773 22.8182C131.896 22.2972 130.972 22.0368 130.002 22.0368C128.447 22.0368 127.109 22.6151 125.989 23.7705C124.869 24.9266 124.309 26.3213 124.309 27.9547C124.309 29.5886 124.872 30.9833 126 32.1388C127.127 33.2948 128.461 33.8726 130.002 33.8726C130.972 33.8726 131.896 33.6374 132.773 33.1663C133.651 32.6953 134.289 32.2249 134.689 31.7533L135.267 31.0258L138.776 34.7504C138.691 34.864 138.573 35.0246 138.423 35.2311C138.274 35.4383 137.928 35.7882 137.386 36.2805C136.843 36.7722 136.258 37.2076 135.631 37.5857C135.003 37.9638 134.186 38.3137 133.18 38.6344C132.174 38.9557 131.114 39.1158 130.002 39.1158C126.849 39.1158 124.123 37.9999 121.826 35.767C119.529 33.5335 118.381 30.9265 118.381 27.9443C118.381 24.9622 119.529 22.3546 121.826 20.1217Z" fill="#333333"/>
<path fill-rule="evenodd" clip-rule="evenodd" d="M148.264 32C149.306 33.0912 150.54 33.6374 151.967 33.6374C153.394 33.6374 154.628 33.0912 155.67 32C156.711 30.9082 157.232 29.56 157.232 27.9547C157.232 26.3495 156.711 24.9978 155.67 23.8991C154.628 22.8004 153.394 22.2508 151.967 22.2508C150.54 22.2508 149.306 22.8004 148.264 23.8991C147.223 24.9978 146.702 26.3495 146.702 27.9547C146.702 29.56 147.223 30.9082 148.264 32ZM159.961 35.7665C157.699 38 155.035 39.1159 151.967 39.1159C148.9 39.1159 146.231 38 143.962 35.7665C141.694 33.5336 140.56 30.926 140.56 27.9444C140.56 24.9616 141.694 22.3547 143.962 20.1218C146.231 17.8883 148.9 16.7724 151.967 16.7724C155.035 16.7724 157.699 17.8883 159.961 20.1218C162.222 22.3547 163.353 24.9616 163.353 27.9444C163.353 30.926 162.222 33.5336 159.961 35.7665Z" fill="#333333"/>
<path fill-rule="evenodd" clip-rule="evenodd" d="M193.644 26.8528C193.644 25.4827 193.316 24.4093 192.659 23.6314C192.003 22.854 191.161 22.4656 190.134 22.4656C188.993 22.4656 188.051 22.9108 187.309 23.8029C186.567 24.6945 186.196 25.9325 186.196 27.516V38.688H180.289V26.8528C180.289 25.4827 179.957 24.4093 179.294 23.6314C178.63 22.854 177.792 22.4656 176.779 22.4656C175.637 22.4656 174.692 22.9108 173.943 23.8029C173.194 24.6945 172.82 25.9325 172.82 27.516V38.688H166.913V17.2H171.692L172.82 19.8328C172.963 19.6044 173.183 19.3227 173.483 18.9877C173.782 18.6521 174.421 18.1988 175.399 17.628C176.376 17.0577 177.421 16.772 178.534 16.772C179.376 16.772 180.168 16.9039 180.91 17.1684C181.652 17.4323 182.244 17.7387 182.686 18.0881C183.128 18.4381 183.51 18.7943 183.831 19.1586C184.152 19.5224 184.37 19.8397 184.484 20.111L184.655 20.496C184.712 20.4105 184.809 20.2785 184.943 20.1001C185.079 19.9217 185.372 19.6222 185.821 19.2011C186.271 18.7806 186.752 18.4025 187.266 18.0669C187.78 17.7318 188.454 17.4323 189.289 17.1678C190.123 16.9039 190.99 16.772 191.889 16.772C194.257 16.772 196.13 17.5677 197.507 19.1586C198.884 20.749 199.572 23.0932 199.572 26.189V38.688H193.644V26.8528Z" fill="#333333"/>
</svg>
